<svg xmlns="http://www.w3.org/2000/svg" width="512" height="512" viewBox="0 0 200 200" xml:space="preserve"><linearGradient id="a" x1="100" x2="100" y1="200" gradientUnits="userSpaceOnUse"><stop offset="0" stop-color="#141e2b"/><stop offset="1" stop-color="#3b577d"/></linearGradient><linearGradient id="b" x1="108.9" x2="119.14" y1="120.71" y2="152.16" gradientUnits="userSpaceOnUse"><stop offset="0" stop-color="#12aaff"/><stop offset="1" stop-color="#0b689c"/></linearGradient><linearGradient id="d" x1="100" x2="100" y1="170.12" y2="29.88" gradientUnits="userSpaceOnUse"><stop offset="0" stop-color="#87b0cc"/><stop offset="1" stop-color="#a9dbff"/></linearGradient><g data-name="Layer 2"><g data-name="Arbitrum (ARB)"><circle cx="100" cy="100" r="100" fill="url(#a)" data-original="url(#b)"/><path fill="url(#b)" d="m110.4 110.7-6.82 18.66a3.4 3.4 0 0 0 0 1.62l11.7 32.02 13.52-7.8-16.25-44.5a1.11 1.11 0 0 0-2.15 0" data-original="url(#a)"/><path fill="url(#b)" d="M124.06 79.36a1.17 1.17 0 0 0-1.49-.72 1.12 1.12 0 0 0-.72.72L115 98a3.4 3.4 0 0 0 0 1.62l19.5 52.47 13.53-7.8-23.67-65z" data-original="url(#a)"/><path fill="url(#d)" d="M100 38.53a2 2 0 0 1 1 0l51.49 29.71a2 2 0 0 1 1 1.69v59.49a2 2 0 0 1-1 1.69L101 160.89a1.94 1.94 0 0 1-2 0l-51.5-29.45a1.83 1.83 0 0 1-1-1.69V70.19a1.87 1.87 0 0 1 1-1.62L99 38.79a1.8 1.8 0 0 1 1 0zm0-8.65a11 11 0 0 0-5.33 1.37L43.11 61a10.53 10.53 0 0 0-5.33 9.17v59.55a10.54 10.54 0 0 0 5.33 9.3l51.56 29.77a11.05 11.05 0 0 0 10.66 0L156.89 139a10.55 10.55 0 0 0 5.33-9.17V70.19a10.51 10.51 0 0 0-5.33-9.19l-51.62-29.75a10.8 10.8 0 0 0-5.27-1.37" data-original="url(#d)"/><path fill="#213147" d="m65.87 152.18 4.74-13.01 9.56 7.87-8.91 8.19z" data-original="#213147"/><path d="M95.64 66h-13a2.32 2.32 0 0 0-2.14 1.43l-28.16 76.88L65.87 152l30.88-84.54A1.16 1.16 0 0 0 96 66a1.3 1.3 0 0 0-.33-.07zm22.89 0h-13a2.33 2.33 0 0 0-2.21 1.49l-32.06 87.74L84.79 163l34.72-95.57A1.1 1.1 0 0 0 119 66a1 1 0 0 0-.48-.1z" data-original="#ffffff" fill="#fff"/></g></g></svg>