<svg xmlns="http://www.w3.org/2000/svg" width="512" height="512" viewBox="0 0 64 64" xml:space="preserve"><g data-name="Layer 2"><g data-name="Layer 1"><g data-name="Avalanche AVAX"><path fill="#e84142" d="M63 39.74A32 32 0 1 1 39.74 1 32 32 0 0 1 63 39.74" data-original="#e84142"/><path fill="#fff" d="M32 64A32 32 0 0 1 1 24.26 32 32 0 0 1 39.74 1 32 32 0 0 1 32 64m0-58A26 26 0 0 0 6.79 25.72a26 26 0 0 0 50.43 12.57A26 26 0 0 0 38.29 6.78 26.4 26.4 0 0 0 32 6" opacity=".24"/><path fill="#fff" d="m62.09 21.13-61.68 16a32 32 0 0 1 61.68-16" opacity=".3"/><path fill="#e84142" d="M57.22 38.29A26 26 0 1 1 38.28 6.78a26 26 0 0 1 18.94 31.51"/><path fill="#fff" d="M40.05 32.68c.79-1.37 2.06-1.37 2.86 0l4.92 8.64c.79 1.37.14 2.48-1.44 2.48h-9.92c-1.56 0-2.21-1.11-1.44-2.48zM30.52 16c.79-1.37 2.05-1.37 2.84 0l1.1 2 2.59 4.55a4.73 4.73 0 0 1 0 4.12l-8.68 15a4.59 4.59 0 0 1-3.56 2.08H17.6c-1.58 0-2.23-1.09-1.44-2.48z"/></g></g></g></svg>