<svg xmlns="http://www.w3.org/2000/svg" width="512" height="512" viewBox="0 0 64.01 64.01" xml:space="preserve"><g data-name="Layer 2"><g data-name="Layer 1"><g data-name="Binance BNB"><path fill="#f0b90b" d="M63.05 39.75A32 32 0 1 1 39.74 1a32 32 0 0 1 23.31 38.75" data-original="#f0b90b"/><path fill="#fff" d="M32 64a32.2 32.2 0 0 1-7.74-1A32 32 0 0 1 1 24.27a32 32 0 0 1 58.47-8.74A32 32 0 0 1 32 64m0-58A26 26 0 0 0 6.79 25.72a26 26 0 1 0 50.44 12.57A26 26 0 0 0 38.29 6.78 26.3 26.3 0 0 0 32 6" opacity=".24"/><path fill="#fff" d="M62.09 21.13.41 37.14a32 32 0 0 1 61.68-16z" opacity=".3"/><path fill="#f0b90b" d="M57.22 38.3A26 26 0 1 1 38.29 6.78 26 26 0 0 1 57.22 38.3"/><path fill="#fff" fill-rule="evenodd" d="m25.52 29.13 7-7 7 7 4.07-4.06L32.5 14l-11 11zM14.5 32l4.07-4.06L22.63 32l-4.06 4.07zm11 2.9 7 7 7-7 4.07 4.06L32.5 50 21.45 39zM42.37 32l4.06-4.06L50.5 32l-4.07 4.07zm-5.73 0-4.14 4.13L28.38 32l.72-.72.36-.35 3-3.05z"/></g></g></g></svg>