<svg xmlns="http://www.w3.org/2000/svg" width="512" height="512" viewBox="0 0 64 63.99" xml:space="preserve"><g data-name="Layer 2"><g data-name="Layer 1"><g data-name="Cardano ADA"><path fill="#0033ad" d="M63 39.74A32 32 0 1 1 39.74 1 32 32 0 0 1 63 39.74" data-original="#0033ad"/><path fill="#fff" d="M32 64a32.2 32.2 0 0 1-7.73-1A32 32 0 0 1 1 24.26a32 32 0 0 1 58.46-8.73A32 32 0 0 1 32 64m0-58A26 26 0 0 0 6.78 25.72a26 26 0 1 0 31.5-18.94A26.3 26.3 0 0 0 32 6" opacity=".24"/><path fill="#fff" d="m62.08 21.13-61.67 16a32 32 0 0 1 61.67-16" opacity=".3"/><path fill="#0033ad" d="M57.21 38.29A26 26 0 1 1 38.28 6.78a26 26 0 0 1 18.93 31.51"/><path fill="#fff" d="M24.59 31.75a2.33 2.33 0 0 0 2.22 2.43H27a2.31 2.31 0 1 0-2.36-2.43zm-8.79-.6a.75.75 0 0 0-.8.7.75.75 0 0 0 .72.78.75.75 0 1 0 .08-1.49zm8.64-12.82a.74.74 0 0 0 .34-1 .78.78 0 0 0-1-.33.75.75 0 0 0-.34 1 .75.75 0 0 0 1 .34zm2.39 4.09a1.16 1.16 0 0 0 .53-1.55 1.19 1.19 0 0 0-1.58-.51 1.14 1.14 0 0 0-.52 1.55 1.19 1.19 0 0 0 1.57.51m-8 2.81a1 1 0 0 0 1.3-.23 1 1 0 0 0-.26-1.31 1 1 0 0 0-1.34.27.93.93 0 0 0 .25 1.3zm1.43 5.51A1.16 1.16 0 0 0 19 31.82a1.18 1.18 0 0 0 2.36.13 1.16 1.16 0 0 0-1.11-1.22zm-1.3 7.75a1 1 0 0 0-.44 1.27 1 1 0 0 0 1.31.42.94.94 0 0 0 .43-1.26 1 1 0 0 0-1.34-.43zm4.57-10.14A1.39 1.39 0 0 0 25.4 28a1.33 1.33 0 0 0-.4-1.89 1.39 1.39 0 0 0-1.91.39 1.35 1.35 0 0 0 .36 1.86zm14.51-6a1.19 1.19 0 0 0 1.59-.35 1.14 1.14 0 0 0-.32-1.59 1.18 1.18 0 0 0-1.63.33A1.12 1.12 0 0 0 38 22.3zm2.41-4.07a.78.78 0 0 0 1.01-.28.73.73 0 0 0-.2-1 .79.79 0 0 0-1.06.21.77.77 0 0 0 .21 1.05zm-2.27 11.26a2.31 2.31 0 1 0-.26 4.61h.13a2.31 2.31 0 0 0 .13-4.61m-10.57-1.35a2.38 2.38 0 0 0 2.1 1.27 2.34 2.34 0 0 0 2.36-2.32 2.26 2.26 0 0 0-.26-1 2.37 2.37 0 0 0-3.16-1 2.3 2.3 0 0 0-1.04 3.05m18.46-3A1 1 0 0 0 46.5 24a1 1 0 0 0-1.3-.41.94.94 0 0 0-.44 1.26 1 1 0 0 0 1.31.38zm-6 .73a1.35 1.35 0 0 0-.63 1.8 1.4 1.4 0 0 0 1.85.61 1.35 1.35 0 0 0 .63-1.8A1.41 1.41 0 0 0 40.1 26zm-7.7-8a1 1 0 0 0 1-.9 1 1 0 0 0-.91-1 1 1 0 1 0-.12 1.91zm0 6a1.35 1.35 0 0 0 1.46-1.26 1.38 1.38 0 0 0-2.76-.16 1.35 1.35 0 0 0 1.29 1.42zm-7.5 13.88a1.35 1.35 0 0 0 .63-1.8 1.41 1.41 0 0 0-1.86-.61 1.35 1.35 0 0 0-.63 1.8 1.4 1.4 0 0 0 1.86.61m8.4-11.89a2.27 2.27 0 0 0 .73 3.15 2.38 2.38 0 0 0 3.26-.66 2.29 2.29 0 0 0-.68-3.2 2.45 2.45 0 0 0-1.29-.37 2.37 2.37 0 0 0-2 1.04zm4.1 9.66a2.38 2.38 0 0 0-3.17-1 2.29 2.29 0 0 0-1 3.1 2.37 2.37 0 0 0 3.16 1 2.29 2.29 0 0 0 1.06-3.09zm4.11-.16a1.39 1.39 0 0 0-1.91.39 1.33 1.33 0 0 0 .43 1.81 1.39 1.39 0 0 0 1.91-.39 1.35 1.35 0 0 0-.36-1.86zM46 31.9a1.17 1.17 0 0 0-1.1-1.22 1.17 1.17 0 0 0-1.24 1.09A1.16 1.16 0 0 0 44.77 33 1.18 1.18 0 0 0 46 31.9m3.25-.82a.75.75 0 0 0-.8.69.75.75 0 0 0 .72.79.75.75 0 1 0 .08-1.49zm-3.05 7.41a1 1 0 0 0-1.34.28.94.94 0 0 0 .27 1.31 1 1 0 0 0 1.34-.27.93.93 0 0 0-.25-1.3zm-21.63 7a.78.78 0 0 0-1.05.21.74.74 0 0 0 .2 1 .78.78 0 0 0 1.06-.21.72.72 0 0 0-.18-1zm16-.07a.75.75 0 0 0-.34 1 .78.78 0 0 0 1 .33.74.74 0 0 0 .34-1 .77.77 0 0 0-1-.34zm-8.87-7.57a2.3 2.3 0 0 0-.63-3.18h-.05a2.38 2.38 0 0 0-3.26.66 2.29 2.29 0 0 0 .68 3.21 2.4 2.4 0 0 0 3.26-.67zM27 41.39a1.19 1.19 0 0 0-1.63.33 1.14 1.14 0 0 0 .32 1.59 1.2 1.2 0 0 0 1.64-.31 1.13 1.13 0 0 0-.3-1.57zm5.5 4.42a1 1 0 1 0 .91 1 1 1 0 0 0-.92-1zm0-6A1.36 1.36 0 0 0 31 41.1a1.36 1.36 0 0 0 1.31 1.43 1.38 1.38 0 0 0 1.45-1.29 1.35 1.35 0 0 0-1.26-1.4zm5.66 1.46a1.14 1.14 0 0 0-.52 1.53 1.18 1.18 0 0 0 1.58.5 1.15 1.15 0 0 0 .53-1.55 1.21 1.21 0 0 0-1.59-.45z"/></g></g></g></svg>