<svg xmlns="http://www.w3.org/2000/svg" width="512" height="512" viewBox="0 0 64 64" xml:space="preserve"><g data-name="Layer 2"><g data-name="Layer 1"><path fill="#f5ac37" d="M63 39.74A32 32 0 1 1 39.74 1 32 32 0 0 1 63 39.74" data-original="#f5ac37"/><path fill="#fff" d="M32 64A32 32 0 0 1 1 24.26 32 32 0 0 1 39.74 1 32 32 0 0 1 32 64m0-58A26 26 0 0 0 6.79 25.72a26 26 0 0 0 50.43 12.57A26 26 0 0 0 38.29 6.78 26.4 26.4 0 0 0 32 6" opacity=".24"/><path fill="#fff" d="m62.09 21.13-61.68 16a32 32 0 0 1 61.68-16" opacity=".3"/><path fill="#f5ac37" d="M57.22 38.29A26 26 0 1 1 38.28 6.78a26 26 0 0 1 18.94 31.51"/><path fill="#fefefd" d="M34.27 33.72h9.13c.19 0 .27 0 .29-.25a14.6 14.6 0 0 0 0-2.8c0-.19-.09-.26-.28-.26H25.28c-.23 0-.3 0-.3.3v2.67c0 .34 0 .34.37.34zm8.4-6.43a.2.2 0 0 0 0-.21 7 7 0 0 0-.53-.94A8.5 8.5 0 0 0 41 24.73a3.7 3.7 0 0 0-.69-.67 10.56 10.56 0 0 0-4.5-2.27 11.6 11.6 0 0 0-2.55-.28h-8c-.23 0-.26.09-.26.29v5.32c0 .24 0 .29.29.29h17.23s.15 0 .17-.12zm0 9.55a3.2 3.2 0 0 0-.76 0H25.28c-.23 0-.32 0-.32.3v5.17c0 .24 0 .29.32.29H33a3.4 3.4 0 0 0 1.1 0 11.3 11.3 0 0 0 3.29-.77 5.4 5.4 0 0 0 1.09-.5h.1a9.8 9.8 0 0 0 4.16-4.16s.1-.22 0-.27zM22 45.34V37c0-.2 0-.22-.24-.22h-3.37c-.17 0-.24 0-.24-.24v-2.81h3.44c.19 0 .26 0 .26-.25v-2.84c0-.17 0-.22-.25-.22h-3.21c-.17 0-.24 0-.24-.25v-2.64c0-.17 0-.2.24-.2h3.28c.23 0 .28 0 .28-.3V19c0-.24 0-.3.31-.3H33.5a20 20 0 0 1 2.43.26 15.2 15.2 0 0 1 4.71 1.72 13.5 13.5 0 0 1 2.64 2.05 17 17 0 0 1 1.6 2A12.5 12.5 0 0 1 46.05 27a.4.4 0 0 0 .45.32h2.69c.34 0 .34 0 .36.32v2.46c0 .24-.1.29-.32.29h-2.1c-.2 0-.26 0-.24.28a18 18 0 0 1 0 2.74c0 .26 0 .3.28.3h2.38c.1.13 0 .25 0 .39a2.4 2.4 0 0 1 0 .54v1.72c0 .26 0 .32-.32.32H46.4a.37.37 0 0 0-.4.32 11.8 11.8 0 0 1-3.14 4.58 17 17 0 0 1-1.61 1.3 20 20 0 0 1-1.81 1A16.2 16.2 0 0 1 35.87 45a19 19 0 0 1-3.45.28H22.09z"/></g></g></svg>