<svg xmlns="http://www.w3.org/2000/svg" width="512" height="512" viewBox="0 0 64 64" xml:space="preserve"><g data-name="Layer 2"><g data-name="Layer 1"><g data-name="Dogecoin DOGE"><path fill="#c2a633" d="M63 39.74A32 32 0 1 1 39.74 1 32 32 0 0 1 63 39.74" data-original="#c2a633"/><path fill="#fff" d="M32 64A32 32 0 0 1 1 24.26 32 32 0 0 1 39.74 1 32 32 0 0 1 32 64m0-58A26 26 0 0 0 6.79 25.72a26 26 0 0 0 50.43 12.57A26 26 0 0 0 38.29 6.78 26.4 26.4 0 0 0 32 6" opacity=".24"/><path fill="#fff" d="m62.09 21.13-61.68 16a32 32 0 0 1 61.68-16" opacity=".3"/><path fill="#c2a633" d="M57.22 38.29A26 26 0 1 1 38.28 6.78a26 26 0 0 1 18.94 31.51"/><path fill="#fff" d="M30.78 16.74H22v13.58h-3.6v3.33H22v13.58h10.23s14.37 1.21 14.37-15c0-15.92-13.75-15.49-15.82-15.49M32 41.6h-4.23v-8h6.34v-3.28h-6.34v-7.94h4c1.5 0 9.09.6 9.1 10S33.08 41.6 32 41.6"/></g></g></g></svg>