<svg xmlns="http://www.w3.org/2000/svg" width="512" height="512" viewBox="0 0 64.01 64" xml:space="preserve"><g data-name="Layer 2"><g data-name="Layer 1"><g data-name="Ethereum ETH"><path fill="#6e7cca" d="M63 39.74A32 32 0 1 1 39.74 1 32 32 0 0 1 63 39.74" data-original="#6e7cca"/><path fill="#fff" d="M63 39.74A32 32 0 0 1 32.06 64a32.4 32.4 0 0 1-7.8-1 32 32 0 0 1-8.74-58.42A32 32 0 0 1 63 39.74" opacity=".24"/><path fill="#fff" d="m62.09 21.13-61.68 16a32 32 0 0 1 61.68-16" opacity=".3"/><path fill="#6e7cca" d="M57.22 38.29A26 26 0 1 1 38.28 6.78a26 26 0 0 1 18.94 31.51"/><path fill="#fffdfe" d="m32 39 .26.25 11.66-6.89L32.28 13l-.26.86z"/><path fill="#b0e7ff" d="M32.28 39.25V13L20.61 32.36z"/><path fill="#fffdff" d="m32.13 50.58.15.42L44 34.57l-11.72 6.89-.15.17z"/><path fill="#b0e7ff" d="M20.61 34.57 32.28 51v-9.54z"/><path fill="#fffdff" d="M32.28 27.06v12.19l11.66-6.89z"/><path fill="#c8f7f7" d="m32.28 27.06-11.67 5.3 11.67 6.89z"/></g></g></g></svg>