<svg xmlns="http://www.w3.org/2000/svg" width="512" height="512" viewBox="0 0 64.01 64" xml:space="preserve"><g data-name="Layer 2"><g data-name="Layer 1"><g data-name="Polkadot DOT"><path fill="#e7087e" d="M63.05 39.75A32 32 0 1 1 39.74 1a32 32 0 0 1 23.31 38.75" data-original="#e7087e"/><path fill="#fff" d="M32 64a32.2 32.2 0 0 1-7.74-1A32 32 0 0 1 1 24.27a32 32 0 0 1 58.47-8.74A32 32 0 0 1 32 64m0-58A26 26 0 0 0 6.79 25.72a26 26 0 1 0 50.43 12.57A26 26 0 0 0 38.29 6.78 26.3 26.3 0 0 0 32 6" opacity=".24"/><path fill="#fff" d="m62.09 21.13-61.68 16a32 32 0 0 1 61.68-16" opacity=".3"/><path fill="#e7087e" d="M57.22 38.29A26 26 0 1 1 38.29 6.78a26 26 0 0 1 18.93 31.51"/><g fill="#fff"><ellipse cx="31.94" cy="17.61" rx="6.56" ry="3.86"/><ellipse cx="31.94" cy="46.39" rx="6.56" ry="3.86"/><ellipse cx="19.48" cy="39.2" rx="3.86" ry="6.56" transform="rotate(-30 19.475 39.2)"/><ellipse cx="44.4" cy="24.81" rx="3.86" ry="6.56" transform="rotate(-30 44.39 24.816)"/><ellipse cx="44.52" cy="39.06" rx="6.58" ry="3.87" transform="rotate(-60.13 44.507 39.069)"/><ellipse cx="19.47" cy="24.81" rx="6.56" ry="3.86" transform="rotate(-60 19.474 24.812)"/></g></g></g></g></svg>