<svg xmlns="http://www.w3.org/2000/svg" width="512" height="512" viewBox="0 0 64.01 64" xml:space="preserve"><g data-name="Layer 2"><g data-name="Layer 1"><g data-name="Polygon MATIC"><path fill="#864de6" d="M63 39.74A32 32 0 1 1 39.74 1 32 32 0 0 1 63 39.74" data-original="#864de6"/><path fill="#fff" d="M32 64A32 32 0 0 1 1 24.27 32 32 0 0 1 39.74 1 32 32 0 0 1 32 64m0-58A26 26 0 0 0 6.79 25.72a26 26 0 0 0 50.43 12.57A26 26 0 0 0 38.29 6.78 26.3 26.3 0 0 0 32 6" opacity=".24"/><path fill="#fff" d="m62.09 21.13-61.68 16a32 32 0 0 1 61.68-16" opacity=".3"/><path fill="#864de6" d="M57.22 38.29A26 26 0 1 1 38.29 6.78a26 26 0 0 1 18.93 31.51"/><path fill="#fff" d="m47.74 30.61-7.47-4.31a1.55 1.55 0 0 0-1.61 0L25.34 34a1.62 1.62 0 0 1-1.62 0l-4.24-2.45a1.62 1.62 0 0 1-.81-1.4v-4.92a1.59 1.59 0 0 1 .81-1.39l4.24-2.46a1.6 1.6 0 0 1 1.61 0l4.25 2.46a1.59 1.59 0 0 1 .81 1.39v2.36a.39.39 0 0 0 .4.39.36.36 0 0 0 .2-.06l2.21-1.27a.81.81 0 0 0 .4-.7v-2.58a1.58 1.58 0 0 0-.8-1.37l-7.47-4.31a1.6 1.6 0 0 0-1.61 0L16.25 22a1.59 1.59 0 0 0-.81 1.39V32a1.59 1.59 0 0 0 .81 1.39l7.47 4.31a1.6 1.6 0 0 0 1.61 0L38.65 30a1.62 1.62 0 0 1 1.62 0l4.27 2.46a1.62 1.62 0 0 1 .79 1.39v4.92a1.6 1.6 0 0 1-.81 1.39l-4.25 2.45a1.6 1.6 0 0 1-1.61 0l-4.25-2.46a1.59 1.59 0 0 1-.81-1.39v-2.35a.4.4 0 0 0-.4-.4.36.36 0 0 0-.2.06l-2.21 1.27a.81.81 0 0 0-.4.7v2.59a1.61 1.61 0 0 0 .8 1.4l7.49 4.3a1.6 1.6 0 0 0 1.61 0L47.76 42a1.64 1.64 0 0 0 .81-1.4V32a1.61 1.61 0 0 0-.83-1.39"/></g></g></g></svg>