<svg xmlns="http://www.w3.org/2000/svg" width="512" height="512" viewBox="0 0 64.01 64" xml:space="preserve"><g data-name="Layer 2"><g data-name="Layer 1"><g data-name="Ripple XRP"><path fill="#24292e" d="M63.05 39.75A32 32 0 1 1 39.74 1a32 32 0 0 1 23.31 38.75" data-original="#24292e"/><path fill="#fff" d="M32 64a32.2 32.2 0 0 1-7.74-1A32 32 0 0 1 1 24.27a32 32 0 0 1 58.47-8.74A32 32 0 0 1 32 64m0-58A26 26 0 0 0 6.79 25.72a26 26 0 1 0 50.43 12.57A26 26 0 0 0 38.29 6.78 26.3 26.3 0 0 0 32 6" opacity=".24"/><path fill="#fff" d="m62.09 21.13-61.68 16a32 32 0 0 1 61.68-16" opacity=".3"/><path fill="#24292e" d="M57.22 38.29A26 26 0 1 1 38.29 6.78a26 26 0 0 1 18.93 31.51"/><path d="m37.8 28.59 8.83-8.75h-4.25l-6.71 6.65a5.21 5.21 0 0 1-7.33 0l-6.71-6.65h-4.25l8.83 8.75a8.27 8.27 0 0 0 11.59 0m0 6.77a8.25 8.25 0 0 0-11.59 0l-8.89 8.8h4.25l6.77-6.7a5.23 5.23 0 0 1 7.33 0l6.77 6.7h4.25z" fill="#fff"/></g></g></g></svg>