<svg xmlns="http://www.w3.org/2000/svg" width="512" height="512" viewBox="0 0 64.01 64.01" xml:space="preserve"><g data-name="Layer 2"><g data-name="Layer 1"><g data-name="Shiba Inu SHIB"><path fill="#f00500" d="M63.05 39.75A32 32 0 1 1 39.74 1a32 32 0 0 1 23.31 38.75" data-original="#f00500"/><path fill="#fff" d="M32 64a32.2 32.2 0 0 1-7.74-1A32 32 0 0 1 1 24.27a32 32 0 0 1 58.47-8.74A32 32 0 0 1 32 64m0-58A26 26 0 0 0 6.79 25.72a26 26 0 0 0 50.44 12.57A26 26 0 0 0 38.29 6.78 26.3 26.3 0 0 0 32 6" opacity=".24"/><path fill="#fff" d="M62.09 21.13.41 37.14a32 32 0 0 1 61.68-16z" opacity=".3"/><path fill="#f00500" d="M57.22 38.3A26 26 0 1 1 38.29 6.78 26 26 0 0 1 57.22 38.3"/><path fill="#f00500" d="M40.79 17.26a22 22 0 0 0-2.6 3.09l-.25-.08a17.5 17.5 0 0 0-4.35-.85h-2.65a15.7 15.7 0 0 0-4.32.85l-.16.06a23 23 0 0 0-2.68-3.06 18.64 18.64 0 0 1 16.78-.12zm8.82 21.62a17.7 17.7 0 0 1-3.19 5.6 20 20 0 0 1-2.5 2.45 18.4 18.4 0 0 1-7.2 3.55 18.9 18.9 0 0 1-8.85 0 18.4 18.4 0 0 1-7.2-3.55 20 20 0 0 1-2.49-2.45A17.58 17.58 0 0 1 15 27.34a19 19 0 0 1 1.46-3.14c.27-.46.6-1 .76-1.18.41 1.74.9 3.47 1.47 5.17a1 1 0 0 1-.07.13 20.8 20.8 0 0 0-2.21 8s0 .07 0 .11a5.3 5.3 0 0 0 .11 1.74 11.25 11.25 0 0 0 3.81 5.17c3.38 2.87 8 4.95 11.44 5.18 3.62.25 9-1.87 12.52-5A18 18 0 0 0 45.83 42a9 9 0 0 0 .84-1.12 1 1 0 0 1 .07-.13c.09-.13.43-.74.48-.84a7.8 7.8 0 0 0 .62-2 6 6 0 0 0 .06-1 1 1 0 0 1 0-.13v-.46c0-.18 0-.52-.06-.79a16.54 16.54 0 0 0-2.16-6.94l.05-.59v-.05c.17-.53.9-2.74 1.47-5.28l.09.11c.15.2.54.8.72 1.08a18 18 0 0 1 1.87 4.19 17.7 17.7 0 0 1-.26 10.8z"/><path d="M42.21 32.07a1.9 1.9 0 0 1-.55.57A9.6 9.6 0 0 1 38 34a4.4 4.4 0 0 1-1.87.06C36 34 36 33.91 36 33.71a2.8 2.8 0 0 1 1.11-1.34c.31-.22 1.56-1 2.14-1.3a7.8 7.8 0 0 1 2.26-.91 1.2 1.2 0 0 1 .43 0c.1 0 .21.34.26.71a10 10 0 0 1 .01 1.2M28.78 34c0 .07-.2.14-.4.17a6.3 6.3 0 0 1-1.12 0 11.8 11.8 0 0 1-3.43-1 4.2 4.2 0 0 1-1.18-.79l-.16-.16V32a5.6 5.6 0 0 1 0-1.18 1.4 1.4 0 0 1 .18-.5c0-.06 0-.06.25-.06a2.4 2.4 0 0 1 .8.15 16.4 16.4 0 0 1 3 1.5 5.3 5.3 0 0 1 1.74 1.36 1.17 1.17 0 0 1 .29.75zm8.07 7.94-.15.61c-.09.33-.15.59-.15.6h-.37l-.25.6c-.14.32-.26.62-.28.67v.08l-.12-.19-.12-.2v-1.62h-.05c-.1 0-.79.12-1.09.15a15.6 15.6 0 0 1-3.74-.08h-.38v1.63l-.1.15-.1.15s-.07-.07-.21-.33a4.5 4.5 0 0 1-.32-.87v-.16H29v-.21c0-.12 0-.25-.07-.38v-.19l-.15-.13-.21-.22a.11.11 0 0 1 0-.09v-.07H30V42h1.92l.18-.28.19-.29h.24v-1.09l-.31-.14a3 3 0 0 1-1.82-1.57c-.05-.12-.05-.17-.06-.74a2.2 2.2 0 0 1 0-.74.86.86 0 0 1 .59-.58 13 13 0 0 1 1.7 0h1.59l.17.08a1.07 1.07 0 0 1 .43.34.9.9 0 0 1 .18.67 5 5 0 0 1-.09 1.1 2.3 2.3 0 0 1-.33.65 3 3 0 0 1-1.28.9l-.13.05v1.2h.25l.17.25.16.26h1.6c.05 0 .06 0 .12-.09l.07-.1h.65a3 3 0 0 1 .64 0z"/><path d="M33.84 43.53c-.11.06-.18.09-.2.08l-.18-.14-.15-.12-.16.17c-.35.38-.36.39-.46.4s-.2 0-.39-.3l-.18-.28h-.28l-.08.15-.07.16h-.13l-.31-.12-.25-.16v-.32h3v.15c0 .18 0 .18-.24.32z"/><path fill="#fff" d="M48.09 36.58a1 1 0 0 0 0-.13 12.13 12.13 0 0 0-8.9 2.75s-1.19-5.36-6.65-5.36S25 39.2 25 39.2a9.83 9.83 0 0 0-8.65-2.84s0 .07 0 .11a5 5 0 0 0 .11 1.74 11.25 11.25 0 0 0 3.81 5.17c3.38 2.87 8 4.95 11.44 5.18 3.62.25 9-1.87 12.52-5a19 19 0 0 0 1.6-1.56 9 9 0 0 0 .84-1.12 1 1 0 0 1 .07-.13c.09-.13.43-.74.48-.84a7.8 7.8 0 0 0 .62-2 5.4 5.4 0 0 0 .25-1.33m-14.25 7c-.11.06-.18.09-.2.08a1 1 0 0 1-.18-.14l-.16-.12-.16.17c-.34.38-.35.39-.46.4s-.19 0-.38-.3-.19-.28-.19-.28h-.27l-.07.15-.07.16h-.13l-.31-.12-.26-.21v-.32h3v.15c.09.19.09.19-.16.33zm2.85-1-.15.6h-.37l-.24.6c-.14.32-.26.62-.28.67v.08l-.12-.19-.12-.2v-1.65c-.36.06-.73.11-1.09.15a15.7 15.7 0 0 1-3.75-.08h-.37v1.63l-.1.15-.1.15s-.08-.07-.21-.33a4 4 0 0 1-.32-.87v-.16H29v-.23l-.06-.38v-.19l-.14-.13-.23-.2a.11.11 0 0 1 0-.09v-.07H30V42h1.95l.19-.28.18-.29h.24v-1.09l-.31-.14a3.07 3.07 0 0 1-1.83-1.57 2.4 2.4 0 0 1-.05-.74 2.2 2.2 0 0 1 0-.74.84.84 0 0 1 .59-.58 13 13 0 0 1 1.7 0h1.58l.18.08a1.07 1.07 0 0 1 .43.34 1 1 0 0 1 .17.67 5.2 5.2 0 0 1-.08 1.1 2.7 2.7 0 0 1-.33.65 3.1 3.1 0 0 1-1.28.9l-.14.05v1.2h.25l.17.26.16.25h1.59c.06 0 .07 0 .13-.09l.07-.1h.65a2.7 2.7 0 0 1 .66 0 5 5 0 0 0-.18.59z"/><path fill="#ffa409" d="M48.05 36v-.79a16.8 16.8 0 0 0-2.16-6.94c-.05-.08-.09-.16-.13-.24a.2.2 0 0 1 0-.05c.18-.53.9-2.74 1.48-5.28.78-3.44 1.27-7.47-.24-8.68 0 0-2.63-.19-6.14 3.25a23.4 23.4 0 0 0-2.6 3.09l-.26-.09a17.5 17.5 0 0 0-4.36-.85H31a15.7 15.7 0 0 0-4.32.85l-.16.06a23 23 0 0 0-2.68-3.06C20.13 13.81 17.41 14 17.41 14c-1.61 1.24-1.06 5.45-.23 9 .42 1.74.91 3.47 1.47 5.17a1 1 0 0 1-.06.13 20.8 20.8 0 0 0-2.22 8A9.85 9.85 0 0 1 25 39.2s2-5.36 7.51-5.36 6.64 5.36 6.64 5.36a12.16 12.16 0 0 1 8.9-2.75zM19.73 26s-2.13-5.33-1.58-8.37a2.9 2.9 0 0 1 .53-1.31s2.42.24 6.31 4.57a11 11 0 0 0-1.73 1.13 13.7 13.7 0 0 0-3.52 4zm9.05 8a.65.65 0 0 1-.4.17 6.3 6.3 0 0 1-1.12 0 12 12 0 0 1-3.43-1 4.5 4.5 0 0 1-1.18-.8l-.16-.16v-.22a6 6 0 0 1 0-1.18 1.6 1.6 0 0 1 .17-.5c0-.06 0-.06.25-.06a2.4 2.4 0 0 1 .81.15 16 16 0 0 1 3 1.5 5.3 5.3 0 0 1 1.75 1.36 1.17 1.17 0 0 1 .29.75zm13.43-1.89a1.9 1.9 0 0 1-.55.57A9.6 9.6 0 0 1 38 34a4.6 4.6 0 0 1-1.87.06C36 34 36 33.91 36 33.71a2.8 2.8 0 0 1 1.11-1.34c.31-.22 1.56-1 2.14-1.3a7.8 7.8 0 0 1 2.26-.91 1.2 1.2 0 0 1 .43 0c.1 0 .21.34.26.71a10 10 0 0 1 .01 1.2zm-1-10a10.5 10.5 0 0 0-1.67-1.12c3.77-4.34 6.1-4.58 6.1-4.58a3.2 3.2 0 0 1 .51 1.31c.53 3-1.53 8.38-1.53 8.38a13.3 13.3 0 0 0-3.36-4.04z"/><path fill="#ff9300" d="M46.2 17.66c-.45-.06-2.55-.07-4.94 4.4a11 11 0 0 0-1.67-1.12c3.77-4.34 6.1-4.57 6.1-4.57a3.1 3.1 0 0 1 .52 1.3z"/><path fill="#ff8300" d="M44.67 26a13.4 13.4 0 0 0-3.4-4c2.38-4.47 4.48-4.46 4.93-4.4.53 3.05-1.53 8.38-1.53 8.38zm1.61-8.36h-.08z"/><path fill="#ff9300" d="M25 20.93a11.3 11.3 0 0 0-1.73 1.12c-2.47-4.47-4.64-4.46-5.11-4.4a2.9 2.9 0 0 1 .53-1.3s2.43.23 6.32 4.57z"/><path fill="#ff8300" d="M23.26 22.06a13.6 13.6 0 0 0-3.53 4s-2.13-5.33-1.58-8.38c.46-.06 2.64-.07 5.11 4.4zm-5.11-4.4h-.09z"/><path fill="#fff" d="M38.9 29s-1.82.11-1.6-1.31a1.88 1.88 0 0 1 2.06-1.54c.4.06 2 .63 1.71 1.82s-.69 1-.92 1a8.5 8.5 0 0 1-1.25 0zm-13.46 0s-1.82.11-1.59-1.31a1.87 1.87 0 0 1 2-1.54c.4.06 2 .63 1.71 1.82s-.68 1-.91 1a9 9 0 0 1-1.21.03"/></g></g></g></svg>