<svg xmlns="http://www.w3.org/2000/svg" xmlns:xlink="http://www.w3.org/1999/xlink" width="512" height="512" viewBox="0 0 64.01 64" xml:space="preserve"><linearGradient id="a" x1="46.06" x2="27.01" y1="20.55" y2="48.48" gradientUnits="userSpaceOnUse"><stop offset="0" stop-color="#00ffa3"/><stop offset="1" stop-color="#dc1fff"/></linearGradient><linearGradient xlink:href="#a" id="b" x1="37.55" x2="18.5" y1="14.74" y2="42.67"/><linearGradient xlink:href="#a" id="c" x1="41.79" x2="22.74" y1="17.63" y2="45.56"/><g data-name="Layer 2"><g data-name="Layer 1"><g data-name="Solana SOL"><path fill="#000101" d="M63 39.74A32 32 0 1 1 39.74 1 32 32 0 0 1 63 39.74" data-original="#000101"/><path fill="#fff" d="M32 64A32 32 0 0 1 1 24.27 32 32 0 0 1 39.74 1 32 32 0 0 1 32 64m0-58A26 26 0 0 0 6.79 25.72a26 26 0 0 0 50.43 12.57A26 26 0 0 0 38.29 6.78 26.3 26.3 0 0 0 32 6" opacity=".24"/><path fill="#fff" d="m62.09 21.13-61.68 16a32 32 0 0 1 61.68-16" opacity=".3"/><path fill="#000101" d="M57.22 38.29A26 26 0 1 1 38.29 6.78a26 26 0 0 1 18.93 31.51"/><path fill="url(#a)" d="M21.54 38.41a1 1 0 0 1 .71-.3h24.8a.53.53 0 0 1 .5.55.58.58 0 0 1-.14.34l-4.9 4.89a1 1 0 0 1-.71.3H17a.51.51 0 0 1-.36-.9z"/><path fill="url(#b)" d="M21.54 20.11a1 1 0 0 1 .71-.3h24.8a.5.5 0 0 1 .5.52.52.52 0 0 1-.14.35l-4.9 4.91a1 1 0 0 1-.71.3H17a.53.53 0 0 1-.5-.55.58.58 0 0 1 .14-.34z"/><path fill="url(#c)" d="M42.51 29.2a1 1 0 0 0-.71-.3H17a.53.53 0 0 0-.5.55.58.58 0 0 0 .14.34l4.9 4.88a1 1 0 0 0 .71.3h24.8a.51.51 0 0 0 .5-.52.52.52 0 0 0-.14-.35z"/></g></g></g></svg>