<svg xmlns="http://www.w3.org/2000/svg" width="512" height="512" viewBox="0 0 64.01 64" xml:space="preserve"><g data-name="Layer 2"><g data-name="Layer 1"><g data-name="Stellar Lumens XLM"><path fill="#0d131c" d="M63.05 39.75A32 32 0 1 1 39.74 1a32 32 0 0 1 23.31 38.75" data-original="#0d131c"/><path fill="#fff" d="M32 64a32.2 32.2 0 0 1-7.74-1A32 32 0 0 1 1 24.27a32 32 0 0 1 58.47-8.74A32 32 0 0 1 32 64m0-58A26 26 0 0 0 6.79 25.72a26 26 0 1 0 50.43 12.57A26 26 0 0 0 38.29 6.78 26.3 26.3 0 0 0 32 6" opacity=".24"/><path fill="#fff" d="m62.09 21.13-61.68 16a32 32 0 0 1 61.68-16" opacity=".3"/><path fill="#0d131c" d="M57.22 38.29A26 26 0 1 1 38.29 6.78a26 26 0 0 1 18.93 31.51"/><path d="M48 20.2v2.68l-31 15.8V36l1.13-.58a2.33 2.33 0 0 0 1-1 2.3 2.3 0 0 0 .3-1.35v-1a13.11 13.11 0 0 1 7.15-11.68 13.2 13.2 0 0 1 7-1.4 13 13 0 0 1 6.68 2.47l-2.45 1.25a10.73 10.73 0 0 0-16 9.36 11 11 0 0 0 .09 1.4zM23.53 38 48 25.56v2.67l-1.13.58a2.3 2.3 0 0 0-1 1 2.3 2.3 0 0 0-.3 1.34v1A13.12 13.12 0 0 1 24.8 42.73l2.31-1.18.13-.07a10.75 10.75 0 0 0 10.68-.1 10.71 10.71 0 0 0 5.31-9.26 11 11 0 0 0-.09-1.41L17 44v-2.65z" fill="#fff"/></g></g></g></svg>