<svg xmlns="http://www.w3.org/2000/svg" width="512" height="512" viewBox="0 0 64.01 64.01" xml:space="preserve"><g data-name="Layer 2"><g data-name="Layer 1"><g data-name="Tether USDT"><path fill="#26a17b" d="M63.05 39.75A32 32 0 1 1 39.74 1a32 32 0 0 1 23.31 38.75" data-original="#26a17b"/><path fill="#fff" d="M32 64a32.2 32.2 0 0 1-7.74-1 32 32 0 0 1-8.73-58.42A32 32 0 1 1 32 64m0-58A26 26 0 0 0 6.79 25.72 26 26 0 1 0 57.23 38.3 26.07 26.07 0 0 0 32 6" opacity=".24"/><path fill="#fff" d="M62.09 21.13.41 37.14a32 32 0 0 1 61.68-16z" opacity=".3"/><path fill="#26a17b" d="M57.22 38.3A26 26 0 1 1 38.29 6.78 26 26 0 0 1 57.22 38.3"/><path fill="#fff" d="M48 32c0-2-5.49-3.7-12.79-4.09V24.7h9.11V18H19.41v6.7h9.11v3.23C21.36 28.34 16 30 16 32s5.36 3.66 12.52 4.08v11.54h6.69V36.09C42.51 35.7 48 34 48 32m-16 2c-7.83 0-14.18-1.21-14.18-2.71 0-1.27 4.55-2.33 10.7-2.63v3.89c1.11.06 2.28.1 3.48.1s2.19 0 3.21-.08v-3.93c6.29.28 11 1.36 11 2.64C46.18 32.78 39.83 34 32 34"/></g></g></g></svg>