<svg xmlns="http://www.w3.org/2000/svg" width="512" height="512" viewBox="0 0 64.01 64" xml:space="preserve"><g data-name="Layer 2"><g data-name="Layer 1"><g data-name="Tezos XTZ"><path fill="#0868ff" d="M63.05 39.75A32 32 0 1 1 39.74 1a32 32 0 0 1 23.31 38.75" data-original="#0868ff"/><path fill="#fff" d="M32 64a32.2 32.2 0 0 1-7.74-1A32 32 0 0 1 1 24.27a32 32 0 0 1 58.47-8.74A32 32 0 0 1 32 64m0-58A26 26 0 0 0 6.79 25.72a26 26 0 1 0 50.43 12.57A26 26 0 0 0 38.29 6.78 26.3 26.3 0 0 0 32 6" opacity=".24"/><path fill="#fff" d="m62.09 21.13-61.68 16a32 32 0 0 1 61.68-16" opacity=".3"/><path fill="#0868ff" d="M57.22 38.29A26 26 0 1 1 38.29 6.78a26 26 0 0 1 18.93 31.51"/><path fill="#fff" d="M35.83 50a7.5 7.5 0 0 1-5.58-1.84 5.75 5.75 0 0 1-1.75-3.94 2.6 2.6 0 0 1 .32-1.3 2.25 2.25 0 0 1 .82-.91 2.92 2.92 0 0 1 2.61 0 2.16 2.16 0 0 1 .84.83 2.7 2.7 0 0 1 .32 1.3 2.5 2.5 0 0 1-.41 1.49 2 2 0 0 1-1.06.79 2.92 2.92 0 0 0 1.67 1 8.4 8.4 0 0 0 2.39.44 4.83 4.83 0 0 0 4.73-3.4 11.8 11.8 0 0 0 0-7.74 4.9 4.9 0 0 0-2-2.45 5.2 5.2 0 0 0-2.78-.81 5.4 5.4 0 0 0-2.4.83l-1.8.89v-.89l8-10.78H28.5v11.16a4.1 4.1 0 0 0 .63 2.33 2.07 2.07 0 0 0 2 .89 3 3 0 0 0 1.87-.71 6.6 6.6 0 0 0 1.55-1.6.9.9 0 0 1 .2-.26.42.42 0 0 1 .28-.1.8.8 0 0 1 .48.23 1.05 1.05 0 0 1 .3.75 6 6 0 0 1-.1.57 5.46 5.46 0 0 1-2 2.36 4.65 4.65 0 0 1-2.68.81 6.9 6.9 0 0 1-5-1.42 5.34 5.34 0 0 1-1.39-3.94V23.47H18.9V21.4h5.69v-4.77l-1.3-1.3v-1h3.81l1.42.75v6.36h14.72l1.48 1.45-9 9.09a5.7 5.7 0 0 1 1.69-.41 7.3 7.3 0 0 1 3.31.94 6.8 6.8 0 0 1 2.84 2.53A9 9 0 0 1 44.81 38a11.4 11.4 0 0 1 .3 2.61A10.9 10.9 0 0 1 44 45.5a7.05 7.05 0 0 1-3.34 3.35A10.8 10.8 0 0 1 35.83 50"/></g></g></g></svg>