<svg xmlns="http://www.w3.org/2000/svg" width="512" height="512" viewBox="0 0 64.01 64" xml:space="preserve"><g data-name="Layer 2"><g data-name="Layer 1"><g data-name="Toncoin TON"><path fill="#0089cd" d="M63.05 39.75A32 32 0 1 1 39.74 1a32 32 0 0 1 23.31 38.75" data-original="#0089cd"/><path fill="#fff" d="M32 64a32.2 32.2 0 0 1-7.74-1A32 32 0 0 1 1 24.27a32 32 0 0 1 58.47-8.74A32 32 0 0 1 32 64m0-58A26 26 0 0 0 6.79 25.72a26 26 0 1 0 50.43 12.57A26 26 0 0 0 38.29 6.78 26.3 26.3 0 0 0 32 6" opacity=".24"/><path fill="#fff" d="m62.09 21.13-61.68 16a32 32 0 0 1 61.68-16" opacity=".3"/><path fill="#0089cd" d="M57.22 38.29A26 26 0 1 1 38.29 6.78a26 26 0 0 1 18.93 31.51"/><path fill="#fff" fill-rule="evenodd" d="M46.36 21.69a3.55 3.55 0 0 0-1.72-1.59 5 5 0 0 0-2.14-.52H21.69a4 4 0 0 0-2.25.52 3.4 3.4 0 0 0-2 1.74 4.12 4.12 0 0 0-.56 2.52 4.4 4.4 0 0 0 .83 2.25l12.92 22.53a1.78 1.78 0 0 0 1.44.77 1.55 1.55 0 0 0 1.47-.77l13-22.53a4.1 4.1 0 0 0 .63-2.39 5.4 5.4 0 0 0-.81-2.53M30.43 42.11 20.5 24.77l-.39-.77a1 1 0 0 1 .13-.69 1 1 0 0 1 .53-.52h9.66zm13.26-18a1.84 1.84 0 0 1 0 .81L33.54 42.19V22.88h8.82a1.8 1.8 0 0 1 .92.14l.14.14c.14 0 .14.25.27.25a1.06 1.06 0 0 1 0 .66z"/></g></g></g></svg>