<svg xmlns="http://www.w3.org/2000/svg" width="512" height="512" viewBox="0 0 64.01 64.01" xml:space="preserve"><g data-name="Layer 2"><g data-name="Layer 1"><g data-name="Tron TRX"><path fill="#ed112e" d="M63.05 39.75A32 32 0 1 1 39.74 1a32 32 0 0 1 23.31 38.75" data-original="#ed112e"/><path fill="#fff" d="M32 64a32.2 32.2 0 0 1-7.74-1A32 32 0 0 1 1 24.27a32 32 0 0 1 58.47-8.74A32 32 0 0 1 32 64m0-58A26 26 0 0 0 6.79 25.72a26 26 0 1 0 50.44 12.57A26 26 0 0 0 38.29 6.78 26.3 26.3 0 0 0 32 6" opacity=".24"/><path fill="#fff" d="M62.09 21.13.41 37.14a32 32 0 0 1 61.68-16z" opacity=".3"/><path fill="#ed112e" d="M57.22 38.3A26 26 0 1 1 38.29 6.78 26 26 0 0 1 57.22 38.3"/><path fill="#fff" fill-rule="evenodd" d="m48.87 29.06-6.38-6-24.07-4.31 12.75 31.49L48.87 29zm-11.74.66 4.79-3.91 2.76 2.57-7.57 1.34zm-12.39-7.43 8.89 7.23 5.64-4.6-14.53-2.65zM23.11 24l9.39 7.66L31 43.58 23.09 24zM33.4 43.86l1.4-11.32 9.49-1.7-10.89 13z"/></g></g></g></svg>