<svg xmlns="http://www.w3.org/2000/svg" width="512" height="512" viewBox="0 0 64.01 64" xml:space="preserve"><g data-name="Layer 2"><g data-name="Layer 1"><g data-name="Uniswap UNI"><path fill="#f5d4e5" d="M63.05 39.75A32 32 0 1 1 39.74 1a32 32 0 0 1 23.31 38.75" data-original="#f5d4e5"/><path fill="#fff" d="M32 64a32.2 32.2 0 0 1-7.74-1A32 32 0 0 1 1 24.27a32 32 0 0 1 58.47-8.74A32 32 0 0 1 32 64m0-58A26 26 0 0 0 6.79 25.72a26 26 0 1 0 50.43 12.57A26 26 0 0 0 38.29 6.78 26.3 26.3 0 0 0 32 6" opacity=".24"/><path fill="#fff" d="m62.09 21.13-61.68 16a32 32 0 0 1 61.68-16" opacity=".3"/><path fill="#f5d4e5" d="M57.22 38.29A26 26 0 1 1 38.29 6.78a26 26 0 0 1 18.93 31.51"/><g fill="#ff1280"><path d="M25.07 17h-.27a7.2 7.2 0 0 1 2.07.15 8.8 8.8 0 0 1 4.54 3l.4.47h.57a12.4 12.4 0 0 1 7.06.89 9.6 9.6 0 0 1 1.59.91 2.7 2.7 0 0 1 .17.62 3.9 3.9 0 0 1-.2 2.44.68.68 0 0 0 .14.93.7.7 0 0 0 .38.13c.54 0 1.08-.82 1.36-2v-.47l.19.22a8.6 8.6 0 0 1 2.15 4.25v.34l-.1-.42A3.8 3.8 0 0 0 44 27.32a6.7 6.7 0 0 0-3.65-.76 15.7 15.7 0 0 1-4-.62c-1.8-.59-2.74-1.38-4.93-4.22a22 22 0 0 0-2.13-2.47A7.56 7.56 0 0 0 25.07 17"/><path d="M41.49 19.8a4.5 4.5 0 0 1 .38-1.87 3 3 0 0 1 .2-.4v.34a4.4 4.4 0 0 0 0 1.92c.15 1 .22 1.14 1.28 2.23.5.49 1.07 1.13 1.29 1.4l.37.49-.37-.36a12.2 12.2 0 0 0-2-1.46h-.17c-.17 0 0 .22 0 .86A5 5 0 0 1 42 25.2c-.2.34-.22.27 0 0a3.7 3.7 0 0 0 .13-1.36c0-1.92-.23-2.47-1.56-3.16L39.29 20l-.59-.27a9.4 9.4 0 0 1 1.85.55c.76.33.89.33 1 .33a1.9 1.9 0 0 0-.06-.81M26 23.09a7.77 7.77 0 0 1-1.37-4.74v-.45h.22a6 6 0 0 1 1.41.54c.89.52 1.28 1.26 1.65 3a4.8 4.8 0 0 0 .32 1.36 10.5 10.5 0 0 0 .94 1.7c.25.33 0 .51-.47.49a4.57 4.57 0 0 1-2.7-1.9m14.37 9.6c-4.36-1.76-5.92-3.19-5.92-5.87v-.67l.37.27a9 9 0 0 0 4.64 1.42 18.7 18.7 0 0 1 3.39.68 6.42 6.42 0 0 1 4.69 5.13 9.2 9.2 0 0 1 0 2.77 5.7 5.7 0 0 1-.67 1.58v-.27a3.5 3.5 0 0 0-1.29-2.47 17.5 17.5 0 0 0-5.21-2.57m-3.08.74a8 8 0 0 0-.22-.94v-.34l.19.22a4 4 0 0 1 .74 1.29 2.9 2.9 0 0 1 .15 1.23A3.1 3.1 0 0 1 38 36.1a3.8 3.8 0 0 1-1 1.46A5.24 5.24 0 0 1 33.74 39l-1.68.15a11.9 11.9 0 0 0-3.74.63H28a6 6 0 0 1 1.19-.68 12.2 12.2 0 0 1 3.31-.89 13.5 13.5 0 0 0 2-.39 3.83 3.83 0 0 0 2.79-4.39"/><path d="M39.29 36.91a5.1 5.1 0 0 1-.4-3.56c0-.12 0-.22.13-.22a1 1 0 0 1 .32.15c.25.17.81.49 2.22 1.26A11.8 11.8 0 0 1 45.07 37a5.4 5.4 0 0 1 1.15 2.69 8.2 8.2 0 0 1 0 2.62 6.52 6.52 0 0 1-3.3 4.46 1.8 1.8 0 0 1-.47.22 2.7 2.7 0 0 1 .2-.46 4.36 4.36 0 0 0 .22-3.43 14.7 14.7 0 0 0-1.78-3.17 19.7 19.7 0 0 1-1.8-3.02m-16.44 6.81a11.76 11.76 0 0 1 5.5-2.64 8 8 0 0 1 2.84 0A5 5 0 0 1 34 42.86a6.9 6.9 0 0 1 1 3 6 6 0 0 0 .22 1.33 2.85 2.85 0 0 0 1 1.76 3.41 3.41 0 0 0 3.05 0 1.2 1.2 0 0 1 .37 0 7.4 7.4 0 0 1-.94.64 3.1 3.1 0 0 1-1.58.37 3.17 3.17 0 0 1-2.69-1.66 10 10 0 0 1-.74-1.45c-.77-1.78-1.17-2.32-2.08-2.92a2.71 2.71 0 0 0-2.46-.24 1.66 1.66 0 0 0-.6 2.59 2.55 2.55 0 0 0 1.26.68 1.37 1.37 0 0 0 1.49-1.16v-.18a1.06 1.06 0 0 0-.74-1.09c-.68-.3-1.45 0-1.43.74a.57.57 0 0 0 .39.59.82.82 0 0 1-.56-1 .85.85 0 0 1 .29-.43 1.57 1.57 0 0 1 2.19.25 2 2 0 0 1 .16.25 2.4 2.4 0 0 1 0 1.5 2 2 0 0 1-2.47 1.19 3.7 3.7 0 0 1-1.93-1.29 5.85 5.85 0 0 0-4.34-2h-.43z"/><path fill-rule="evenodd" d="M24.7 24.71c.39.55.2.87-.34 1.16a3.2 3.2 0 0 1-1.26.34 1.68 1.68 0 0 1-1.1-.44c-.2-.2-1.06-1.46-3-4.5-1.48-2.32-2.74-4.12-2.76-4.12a47 47 0 0 0 2.59 4.64A41 41 0 0 1 21.15 26c0 .29 0 .44-.44.83a4.93 4.93 0 0 0-1.06 3 9.3 9.3 0 0 1-2.47 4.94 9 9 0 0 0-1.41 2 3.7 3.7 0 0 0-.44 1.75 5.7 5.7 0 0 0 .27 2.18 8.1 8.1 0 0 0 1.08 2.06 5.1 5.1 0 0 1 .81 1.61c0 .17 0 .17.84 0a8.57 8.57 0 0 0 4.32-2.13 1.91 1.91 0 0 0 .68-1.69 1.77 1.77 0 0 0-.15-.91 3.9 3.9 0 0 0-1.55-1.51 3.54 3.54 0 0 1-1.83-2.47 4.37 4.37 0 0 1 .58-2.39 7.7 7.7 0 0 0 1-3.48 2 2 0 0 1 .45-1.58 1.7 1.7 0 0 1 1.17-.53 4.07 4.07 0 0 0 2.46-1 2.07 2.07 0 0 0 .75-1.6v-.52l-.3-.3c-1-1.18-10.83-11.94-10.83-11.94s9.23 11.85 9.62 12.39M18 39.6a.94.94 0 0 0-.3-1.21c-.37-.25-.94-.15-.94.2a.23.23 0 0 0 .17.22c.2 0 .22.2 0 .44a.41.41 0 0 0 0 .58.65.65 0 0 0 .91 0 .8.8 0 0 0 .16-.23M27 28a1.8 1.8 0 0 0-1.06 2.49c.21.3.43.4 1.06.4 1.23 0 2.27-.54 2.47-1.18a1.72 1.72 0 0 0-1-1.58A2.22 2.22 0 0 0 27 28m1.43 1.08a.49.49 0 0 0-.12-.67.5.5 0 0 0-.1-.06c-.59-.37-1.51 0-1.51.52s.47.59.92.59a1.2 1.2 0 0 0 .8-.38z"/></g></g></g></g></svg>