<svg xmlns="http://www.w3.org/2000/svg" width="512" height="512" viewBox="0 0 64.01 64" xml:space="preserve"><g data-name="Layer 2"><g data-name="Layer 1"><g data-name="USD Coin USDC"><path fill="#2859e6" d="M63 39.74A32 32 0 1 1 39.74 1 32 32 0 0 1 63 39.74" data-original="#2859e6"/><path fill="#fff" d="M32 64A32 32 0 0 1 1 24.27 32 32 0 0 1 39.74 1 32 32 0 0 1 32 64m0-58A26 26 0 0 0 6.79 25.72a26 26 0 0 0 50.43 12.57A26 26 0 0 0 38.29 6.78 26.3 26.3 0 0 0 32 6" opacity=".24"/><path fill="#fff" d="m62.09 21.13-61.68 16a32 32 0 0 1 61.68-16" opacity=".3"/><path fill="#2859e6" d="M57.22 38.29A26 26 0 1 1 38.29 6.78a26 26 0 0 1 18.93 31.51"/><g fill="#fff"><path d="M39.26 35.89c0-3.83-2.28-5.15-6.87-5.68-3.26-.45-3.92-1.31-3.92-2.86s1.1-2.52 3.28-2.52a3.24 3.24 0 0 1 3.61 2.31.84.84 0 0 0 .77.56h1.72a.76.76 0 0 0 .76-.74v-.05a5.44 5.44 0 0 0-4.91-4.48v-2.72c0-.43-.33-.76-.88-.88H31.1c-.43 0-.75.33-.86.88v2.52a5.58 5.58 0 0 0-5.36 5.35c0 3.6 2.19 5 6.77 5.58 3.06.53 4.06 1.2 4.06 2.94s-1.53 2.95-3.61 2.95c-2.85 0-3.83-1.2-4.16-2.83a.8.8 0 0 0-.77-.66h-1.79a.74.74 0 0 0-.75.73v.13a6.08 6.08 0 0 0 5.82 5.26v2.64c0 .43.33.75.88.86H33a.93.93 0 0 0 .88-.86v-2.63a6 6 0 0 0 5.46-5.79z"/><path d="M26.44 47.3a16.35 16.35 0 0 1 0-30.77 1.13 1.13 0 0 0 .65-1.1V14a.84.84 0 0 0-.65-.85.6.6 0 0 0-.45.12A19.67 19.67 0 0 0 26 50.7a.67.67 0 0 0 .92-.24 1 1 0 0 0 .08-.21c.1-.1.1-.2.1-.43v-1.53a1.41 1.41 0 0 0-.66-.99M38 13.2a.65.65 0 0 0-.9.22.5.5 0 0 0-.08.21c-.11.12-.11.22-.11.44v1.53a1.48 1.48 0 0 0 .65 1.09 16.35 16.35 0 0 1 0 30.71 1.1 1.1 0 0 0-.65 1.1V50a.85.85 0 0 0 .65.88.68.68 0 0 0 .44-.12 19.74 19.74 0 0 0 0-37.56"/></g></g></g></g></svg>